<?xml version="1.0" standalone="no"?>
<!DOCTYPE svg PUBLIC "-//W3C//DTD SVG 1.1//EN" 
  "http://www.w3.org/Graphics/SVG/1.1/DTD/svg11.dtd">
<svg 
         width="800"
         height="600"
         viewBox="0 0 800 600"
     xmlns="http://www.w3.org/2000/svg" version="1.1">
<desc>US Airports Graph</desc>
<title>US Airports</title>
<g font-size="18" font-family="Verdana"><text x="400" y="120">US Airports - Dijkstra's From LAX</text></g>
<g stroke="gray" stroke-width="0.5">
   <!-- EWR - LAX --> <line x1="678.65" y1="342.00" x2="324.74" y2="429.75" />
   <!-- TUL - LAX --> <line x1="504.90" y1="400.42" x2="324.74" y2="429.75" />
   <!-- MIA - LAX --> <line x1="629.68" y1="535.69" x2="324.74" y2="429.75" />
   <!-- ROC - ORD --> <line x1="650.62" y1="310.45" x2="568.76" y2="325.28" />
   <!-- FAI - SEA --> <line x1="89.15" y1="28.40" x2="293.53" y2="254.16" />
   <!-- BUF - ORD --> <line x1="642.14" y1="312.77" x2="568.76" y2="325.28" />
   <!-- HNL - LAX --> <line x1="8.62" y1="593.86" x2="324.74" y2="429.75" />
   <!-- LBB - LAS --> <line x1="457.42" y1="433.37" x2="350.78" y2="401.96" />
   <!-- BIL - SLC --> <line x1="403.66" y1="275.50" x2="376.18" y2="340.75" />
   <!-- AMA - LAS --> <line x1="458.35" y1="413.15" x2="350.78" y2="401.96" />
   <!-- SYR - ORD --> <line x1="663.15" y1="310.55" x2="568.76" y2="325.28" />
   <!-- SDF - STL --> <line x1="586.11" y1="374.73" x2="549.04" y2="367.27" />
   <!-- GRB - MSP --> <line x1="566.96" y1="292.69" x2="526.23" y2="287.53" />
   <!-- CLT - LAX --> <line x1="624.46" y1="413.22" x2="324.74" y2="429.75" />
   <!-- CMH - LAX --> <line x1="608.86" y1="351.03" x2="324.74" y2="429.75" />
   <!-- PWM - ORD --> <line x1="709.53" y1="303.60" x2="568.76" y2="325.28" />
   <!-- MCO - LAX --> <line x1="621.53" y1="501.42" x2="324.74" y2="429.75" />
   <!-- SAV - DFW --> <line x1="622.38" y1="453.34" x2="495.70" y2="443.34" />
   <!-- DAY - DEN --> <line x1="598.24" y1="352.27" x2="434.62" y2="352.80" />
   <!-- IAH - LAX --> <line x1="509.27" y1="481.20" x2="324.74" y2="429.75" />
   <!-- ATL - LAX --> <line x1="596.58" y1="433.72" x2="324.74" y2="429.75" />
   <!-- DSM - DEN --> <line x1="522.70" y1="331.06" x2="434.62" y2="352.80" />
   <!-- CRP - IAH --> <line x1="491.99" y1="509.98" x2="509.27" y2="481.20" />
   <!-- PHX - LAX --> <line x1="375.90" y1="436.35" x2="324.74" y2="429.75" />
   <!-- SEA - LAX --> <line x1="293.53" y1="254.16" x2="324.74" y2="429.75" />
   <!-- ORD - LAX --> <line x1="568.76" y1="325.28" x2="324.74" y2="429.75" />
   <!-- CLE - LAX --> <line x1="617.20" y1="332.65" x2="324.74" y2="429.75" />
   <!-- FWA - ORD --> <line x1="590.44" y1="338.28" x2="568.76" y2="325.28" />
   <!-- ABQ - LAX --> <line x1="419.13" y1="415.48" x2="324.74" y2="429.75" />
   <!-- SAN - LAX --> <line x1="334.48" y1="445.46" x2="324.74" y2="429.75" />
   <!-- TUS - LAX --> <line x1="384.47" y1="453.49" x2="324.74" y2="429.75" />
   <!-- BNA - LAX --> <line x1="578.57" y1="401.38" x2="324.74" y2="429.75" />
   <!-- GEG - LAS --> <line x1="331.73" y1="251.94" x2="350.78" y2="401.96" />
   <!-- MSY - LAX --> <line x1="549.94" y1="481.09" x2="324.74" y2="429.75" />
   <!-- CVG - LAX --> <line x1="594.66" y1="363.37" x2="324.74" y2="429.75" />
   <!-- BFI - SEA --> <line x1="293.58" y1="253.11" x2="293.53" y2="254.16" />
   <!-- AUS - LAX --> <line x1="490.64" y1="478.47" x2="324.74" y2="429.75" />
   <!-- JAN - DFW --> <line x1="551.39" y1="450.95" x2="495.70" y2="443.34" />
   <!-- JAX - DFW --> <line x1="618.50" y1="474.58" x2="495.70" y2="443.34" />
   <!-- ANC - PDX --> <line x1="72.03" y1="75.73" x2="291.22" y2="278.35" />
   <!-- ERI - CLE --> <line x1="630.59" y1="323.93" x2="617.20" y2="332.65" />
   <!-- LAS - LAX --> <line x1="350.78" y1="401.96" x2="324.74" y2="429.75" />
   <!-- MYR - ATL --> <line x1="640.57" y1="433.16" x2="596.58" y2="433.72" />
   <!-- DLH - LAS --> <line x1="534.45" y1="262.05" x2="350.78" y2="401.96" />
   <!-- TPA - LAX --> <line x1="611.73" y1="507.32" x2="324.74" y2="429.75" />
   <!-- PIT - LAX --> <line x1="630.14" y1="344.61" x2="324.74" y2="429.75" />
   <!-- ICT - LAS --> <line x1="492.54" y1="381.55" x2="350.78" y2="401.96" />
   <!-- PHF - DEN --> <line x1="660.06" y1="388.29" x2="434.62" y2="352.80" />
   <!-- RDU - LAX --> <line x1="641.70" y1="404.59" x2="324.74" y2="429.75" />
   <!-- MKE - LAX --> <line x1="568.83" y1="312.69" x2="324.74" y2="429.75" />
   <!-- MSP - LAX --> <line x1="526.23" y1="287.53" x2="324.74" y2="429.75" />
   <!-- BWI - LAX --> <line x1="658.65" y1="361.72" x2="324.74" y2="429.75" />
   <!-- SAT - LAX --> <line x1="484.24" y1="487.06" x2="324.74" y2="429.75" />
   <!-- CHS - ATL --> <line x1="631.68" y1="443.32" x2="596.58" y2="433.72" />
   <!-- DEN - LAX --> <line x1="434.62" y1="352.80" x2="324.74" y2="429.75" />
   <!-- MBS - ORD --> <line x1="599.36" y1="305.07" x2="568.76" y2="325.28" />
   <!-- BGR - PHL --> <line x1="721.38" y1="288.50" x2="670.07" y2="352.67" />
   <!-- ONT - LAS --> <line x1="331.19" y1="428.27" x2="350.78" y2="401.96" />
   <!-- DFW - LAX --> <line x1="495.70" y1="443.34" x2="324.74" y2="429.75" />
   <!-- SMF - LAX --> <line x1="299.27" y1="367.96" x2="324.74" y2="429.75" />
   <!-- RNO - LAX --> <line x1="313.86" y1="357.51" x2="324.74" y2="429.75" />
   <!-- JFK - LAX --> <line x1="681.77" y1="342.68" x2="324.74" y2="429.75" />
   <!-- ORF - BNA --> <line x1="662.39" y1="391.37" x2="578.57" y2="401.38" />
   <!-- RST - MSP --> <line x1="532.00" y1="300.19" x2="526.23" y2="287.53" />
   <!-- CPR - SLC --> <line x1="420.29" y1="313.20" x2="376.18" y2="340.75" />
   <!-- MCI - LAX --> <line x1="514.29" y1="360.13" x2="324.74" y2="429.75" />
   <!-- PBI - TPA --> <line x1="631.24" y1="524.12" x2="611.73" y2="507.32" />
   <!-- STL - LAX --> <line x1="549.04" y1="367.27" x2="324.74" y2="429.75" />
   <!-- RSW - IAH --> <line x1="617.96" y1="526.03" x2="509.27" y2="481.20" />
   <!-- SLC - LAX --> <line x1="376.18" y1="340.75" x2="324.74" y2="429.75" />
   <!-- PHL - LAX --> <line x1="670.07" y1="352.67" x2="324.74" y2="429.75" />
   <!-- IAD - LAX --> <line x1="652.35" y1="364.72" x2="324.74" y2="429.75" />
   <!-- MDW - LAX --> <line x1="569.98" y1="327.78" x2="324.74" y2="429.75" />
   <!-- BDL - MDW --> <line x1="690.53" y1="325.79" x2="569.98" y2="327.78" />
   <!-- GSO - CLT --> <line x1="632.50" y1="401.73" x2="624.46" y2="413.22" />
   <!-- PDX - LAX --> <line x1="291.22" y1="278.35" x2="324.74" y2="429.75" />
   <!-- FLL - LAX --> <line x1="630.78" y1="532.06" x2="324.74" y2="429.75" />
   <!-- OAK - LAX --> <line x1="294.23" y1="380.62" x2="324.74" y2="429.75" />
   <!-- BHM - PHX --> <line x1="577.97" y1="434.68" x2="375.90" y2="436.35" />
   <!-- IND - LAX --> <line x1="581.64" y1="354.68" x2="324.74" y2="429.75" />
   <!-- MEM - LAX --> <line x1="552.19" y1="415.45" x2="324.74" y2="429.75" />
   <!-- HSV - DFW --> <line x1="577.80" y1="420.72" x2="495.70" y2="443.34" />
   <!-- GPT - DFW --> <line x1="559.44" y1="475.71" x2="495.70" y2="443.34" />
   <!-- GSP - BNA --> <line x1="614.25" y1="417.36" x2="578.57" y2="401.38" />
   <!-- MLI - LAS --> <line x1="547.94" y1="332.17" x2="350.78" y2="401.96" />
   <!-- RFD - DEN --> <line x1="559.22" y1="322.46" x2="434.62" y2="352.80" />
   <!-- SFO - LAX --> <line x1="293.00" y1="381.95" x2="324.74" y2="429.75" />
   <!-- BOS - LAX --> <line x1="703.96" y1="320.26" x2="324.74" y2="429.75" />
   <!-- SJC - LAX --> <line x1="296.57" y1="385.29" x2="324.74" y2="429.75" />
   <!-- SFB - GSP --> <line x1="622.10" y1="496.89" x2="614.25" y2="417.36" />
   <!-- RIC - CVG --> <line x1="653.44" y1="383.43" x2="594.66" y2="363.37" />
   <!-- SRQ - ATL --> <line x1="611.56" y1="514.86" x2="596.58" y2="433.72" />
</g>
<g font-size="7" font-family="Verdana">
   <text x="419.13" y="415.48">ABQ</text>
   <text x="458.35" y="413.15">AMA</text>
   <text x="72.03" y="75.73">ANC</text>
   <text x="596.58" y="433.72">ATL</text>
   <text x="490.64" y="478.47">AUS</text>
   <text x="690.53" y="325.79">BDL</text>
   <text x="293.58" y="253.11">BFI</text>
   <text x="721.38" y="288.50">BGR</text>
   <text x="577.97" y="434.68">BHM</text>
   <text x="403.66" y="275.50">BIL</text>
   <text x="578.57" y="401.38">BNA</text>
   <text x="703.96" y="320.26">BOS</text>
   <text x="642.14" y="312.77">BUF</text>
   <text x="658.65" y="361.72">BWI</text>
   <text x="631.68" y="443.32">CHS</text>
   <text x="617.20" y="332.65">CLE</text>
   <text x="624.46" y="413.22">CLT</text>
   <text x="608.86" y="351.03">CMH</text>
   <text x="420.29" y="313.20">CPR</text>
   <text x="491.99" y="509.98">CRP</text>
   <text x="594.66" y="363.37">CVG</text>
   <text x="598.24" y="352.27">DAY</text>
   <text x="434.62" y="352.80">DEN</text>
   <text x="495.70" y="443.34">DFW</text>
   <text x="534.45" y="262.05">DLH</text>
   <text x="522.70" y="331.06">DSM</text>
   <text x="630.59" y="323.93">ERI</text>
   <text x="678.65" y="342.00">EWR</text>
   <text x="89.15" y="28.40">FAI</text>
   <text x="630.78" y="532.06">FLL</text>
   <text x="590.44" y="338.28">FWA</text>
   <text x="331.73" y="251.94">GEG</text>
   <text x="559.44" y="475.71">GPT</text>
   <text x="566.96" y="292.69">GRB</text>
   <text x="632.50" y="401.73">GSO</text>
   <text x="614.25" y="417.36">GSP</text>
   <text x="8.62" y="593.86">HNL</text>
   <text x="577.80" y="420.72">HSV</text>
   <text x="652.35" y="364.72">IAD</text>
   <text x="509.27" y="481.20">IAH</text>
   <text x="492.54" y="381.55">ICT</text>
   <text x="581.64" y="354.68">IND</text>
   <text x="551.39" y="450.95">JAN</text>
   <text x="618.50" y="474.58">JAX</text>
   <text x="681.77" y="342.68">JFK</text>
   <text x="350.78" y="401.96">LAS</text>
   <text x="324.74" y="429.75">LAX</text>
   <text x="457.42" y="433.37">LBB</text>
   <text x="599.36" y="305.07">MBS</text>
   <text x="514.29" y="360.13">MCI</text>
   <text x="621.53" y="501.42">MCO</text>
   <text x="569.98" y="327.78">MDW</text>
   <text x="552.19" y="415.45">MEM</text>
   <text x="629.68" y="535.69">MIA</text>
   <text x="568.83" y="312.69">MKE</text>
   <text x="547.94" y="332.17">MLI</text>
   <text x="526.23" y="287.53">MSP</text>
   <text x="549.94" y="481.09">MSY</text>
   <text x="640.57" y="433.16">MYR</text>
   <text x="294.23" y="380.62">OAK</text>
   <text x="331.19" y="428.27">ONT</text>
   <text x="568.76" y="325.28">ORD</text>
   <text x="662.39" y="391.37">ORF</text>
   <text x="631.24" y="524.12">PBI</text>
   <text x="291.22" y="278.35">PDX</text>
   <text x="660.06" y="388.29">PHF</text>
   <text x="670.07" y="352.67">PHL</text>
   <text x="375.90" y="436.35">PHX</text>
   <text x="630.14" y="344.61">PIT</text>
   <text x="709.53" y="303.60">PWM</text>
   <text x="641.70" y="404.59">RDU</text>
   <text x="559.22" y="322.46">RFD</text>
   <text x="653.44" y="383.43">RIC</text>
   <text x="313.86" y="357.51">RNO</text>
   <text x="650.62" y="310.45">ROC</text>
   <text x="532.00" y="300.19">RST</text>
   <text x="617.96" y="526.03">RSW</text>
   <text x="334.48" y="445.46">SAN</text>
   <text x="484.24" y="487.06">SAT</text>
   <text x="622.38" y="453.34">SAV</text>
   <text x="586.11" y="374.73">SDF</text>
   <text x="293.53" y="254.16">SEA</text>
   <text x="622.10" y="496.89">SFB</text>
   <text x="293.00" y="381.95">SFO</text>
   <text x="296.57" y="385.29">SJC</text>
   <text x="376.18" y="340.75">SLC</text>
   <text x="299.27" y="367.96">SMF</text>
   <text x="611.56" y="514.86">SRQ</text>
   <text x="549.04" y="367.27">STL</text>
   <text x="663.15" y="310.55">SYR</text>
   <text x="611.73" y="507.32">TPA</text>
   <text x="504.90" y="400.42">TUL</text>
   <text x="384.47" y="453.49">TUS</text>
</g>

</svg>

