<?xml version="1.0" standalone="no"?>
<!DOCTYPE svg PUBLIC "-//W3C//DTD SVG 1.1//EN" 
  "http://www.w3.org/Graphics/SVG/1.1/DTD/svg11.dtd">
<svg 
         width="800"
         height="600"
         viewBox="0 0 800 600"
     xmlns="http://www.w3.org/2000/svg" version="1.1">
<desc>US Airports Graph</desc>
<title>US Airports</title>
<g font-size="18" font-family="Verdana"><text x="400" y="120">US Airports - MST From LAX</text></g>
<g stroke="gray" stroke-width="0.5">
   <!-- RNO - SJC --> <line x1="313.86" y1="357.51" x2="296.57" y2="385.29" />
   <!-- GSP - CLT --> <line x1="614.25" y1="417.36" x2="624.46" y2="413.22" />
   <!-- ROC - CLE --> <line x1="650.62" y1="310.45" x2="617.20" y2="332.65" />
   <!-- MSP - RST --> <line x1="526.23" y1="287.53" x2="532.00" y2="300.19" />
   <!-- SMF - SFO --> <line x1="299.27" y1="367.96" x2="293.00" y2="381.95" />
   <!-- AMA - DEN --> <line x1="458.35" y1="413.15" x2="434.62" y2="352.80" />
   <!-- DEN - CPR --> <line x1="434.62" y1="352.80" x2="420.29" y2="313.20" />
   <!-- BUF - CLE --> <line x1="642.14" y1="312.77" x2="617.20" y2="332.65" />
   <!-- CLE - BUF --> <line x1="617.20" y1="332.65" x2="642.14" y2="312.77" />
   <!-- ATL - GPT --> <line x1="596.58" y1="433.72" x2="559.44" y2="475.71" />
   <!-- ABQ - DEN --> <line x1="419.13" y1="415.48" x2="434.62" y2="352.80" />
   <!-- DFW - TUL --> <line x1="495.70" y1="443.34" x2="504.90" y2="400.42" />
   <!-- SLC - BIL --> <line x1="376.18" y1="340.75" x2="403.66" y2="275.50" />
   <!-- MCO - FLL --> <line x1="621.53" y1="501.42" x2="630.78" y2="532.06" />
   <!-- SFO - RNO --> <line x1="293.00" y1="381.95" x2="313.86" y2="357.51" />
   <!-- SEA - GEG --> <line x1="293.53" y1="254.16" x2="331.73" y2="251.94" />
   <!-- IAD - RDU --> <line x1="652.35" y1="364.72" x2="641.70" y2="404.59" />
   <!-- BIL - SLC --> <line x1="403.66" y1="275.50" x2="376.18" y2="340.75" />
   <!-- JAX - TPA --> <line x1="618.50" y1="474.58" x2="611.73" y2="507.32" />
   <!-- IAH - AUS --> <line x1="509.27" y1="481.20" x2="490.64" y2="478.47" />
   <!-- PHL - BGR --> <line x1="670.07" y1="352.67" x2="721.38" y2="288.50" />
   <!-- ORD - MLI --> <line x1="568.76" y1="325.28" x2="547.94" y2="332.17" />
   <!-- TPA - PBI --> <line x1="611.73" y1="507.32" x2="631.24" y2="524.12" />
   <!-- SDF - STL --> <line x1="586.11" y1="374.73" x2="549.04" y2="367.27" />
   <!-- GRB - MSP --> <line x1="566.96" y1="292.69" x2="526.23" y2="287.53" />
   <!-- AUS - DFW --> <line x1="490.64" y1="478.47" x2="495.70" y2="443.34" />
   <!-- DAY - ORD --> <line x1="598.24" y1="352.27" x2="568.76" y2="325.28" />
   <!-- MKE - ORD --> <line x1="568.83" y1="312.69" x2="568.76" y2="325.28" />
   <!-- GRB - ORD --> <line x1="566.96" y1="292.69" x2="568.76" y2="325.28" />
   <!-- ABQ - TUS --> <line x1="419.13" y1="415.48" x2="384.47" y2="453.49" />
   <!-- ORD - GRB --> <line x1="568.76" y1="325.28" x2="566.96" y2="292.69" />
   <!-- IAH - MSY --> <line x1="509.27" y1="481.20" x2="549.94" y2="481.09" />
   <!-- IND - ORD --> <line x1="581.64" y1="354.68" x2="568.76" y2="325.28" />
   <!-- SLC - CPR --> <line x1="376.18" y1="340.75" x2="420.29" y2="313.20" />
   <!-- BOS - JFK --> <line x1="703.96" y1="320.26" x2="681.77" y2="342.68" />
   <!-- JFK - BDL --> <line x1="681.77" y1="342.68" x2="690.53" y2="325.79" />
   <!-- DLH - MSP --> <line x1="534.45" y1="262.05" x2="526.23" y2="287.53" />
   <!-- MSP - DSM --> <line x1="526.23" y1="287.53" x2="522.70" y2="331.06" />
   <!-- CRP - IAH --> <line x1="491.99" y1="509.98" x2="509.27" y2="481.20" />
   <!-- ICT - DFW --> <line x1="492.54" y1="381.55" x2="495.70" y2="443.34" />
   <!-- BHM - BNA --> <line x1="577.97" y1="434.68" x2="578.57" y2="401.38" />
   <!-- FAI - ANC --> <line x1="89.15" y1="28.40" x2="72.03" y2="75.73" />
   <!-- FWA - ORD --> <line x1="590.44" y1="338.28" x2="568.76" y2="325.28" />
   <!-- SFB - MIA --> <line x1="622.10" y1="496.89" x2="629.68" y2="535.69" />
   <!-- CLE - DAY --> <line x1="617.20" y1="332.65" x2="598.24" y2="352.27" />
   <!-- SAN - LAX --> <line x1="334.48" y1="445.46" x2="324.74" y2="429.75" />
   <!-- SEA - ANC --> <line x1="293.53" y1="254.16" x2="72.03" y2="75.73" />
   <!-- SFO - SMF --> <line x1="293.00" y1="381.95" x2="299.27" y2="367.96" />
   <!-- PHL - IAD --> <line x1="670.07" y1="352.67" x2="652.35" y2="364.72" />
   <!-- PWM - JFK --> <line x1="709.53" y1="303.60" x2="681.77" y2="342.68" />
   <!-- JAX - ATL --> <line x1="618.50" y1="474.58" x2="596.58" y2="433.72" />
   <!-- SAT - IAH --> <line x1="484.24" y1="487.06" x2="509.27" y2="481.20" />
   <!-- PIT - CLE --> <line x1="630.14" y1="344.61" x2="617.20" y2="332.65" />
   <!-- CLE - PIT --> <line x1="617.20" y1="332.65" x2="630.14" y2="344.61" />
   <!-- STL - MDW --> <line x1="549.04" y1="367.27" x2="569.98" y2="327.78" />
   <!-- LAX - SAN --> <line x1="324.74" y1="429.75" x2="334.48" y2="445.46" />
   <!-- LAS - ONT --> <line x1="350.78" y1="401.96" x2="331.19" y2="428.27" />
   <!-- BFI - SEA --> <line x1="293.58" y1="253.11" x2="293.53" y2="254.16" />
   <!-- PHX - TUS --> <line x1="375.90" y1="436.35" x2="384.47" y2="453.49" />
   <!-- MSY - IAH --> <line x1="549.94" y1="481.09" x2="509.27" y2="481.20" />
   <!-- RSW - MCO --> <line x1="617.96" y1="526.03" x2="621.53" y2="501.42" />
   <!-- IAH - SAT --> <line x1="509.27" y1="481.20" x2="484.24" y2="487.06" />
   <!-- CHS - CLT --> <line x1="631.68" y1="443.32" x2="624.46" y2="413.22" />
   <!-- ATL - BHM --> <line x1="596.58" y1="433.72" x2="577.97" y2="434.68" />
   <!-- TUL - DFW --> <line x1="504.90" y1="400.42" x2="495.70" y2="443.34" />
   <!-- AUS - IAH --> <line x1="490.64" y1="478.47" x2="509.27" y2="481.20" />
   <!-- EWR - PHL --> <line x1="678.65" y1="342.00" x2="670.07" y2="352.67" />
   <!-- JFK - BOS --> <line x1="681.77" y1="342.68" x2="703.96" y2="320.26" />
   <!-- PHF - PHL --> <line x1="660.06" y1="388.29" x2="670.07" y2="352.67" />
   <!-- SYR - EWR --> <line x1="663.15" y1="310.55" x2="678.65" y2="342.00" />
   <!-- LAS - PHX --> <line x1="350.78" y1="401.96" x2="375.90" y2="436.35" />
   <!-- LAS - LAX --> <line x1="350.78" y1="401.96" x2="324.74" y2="429.75" />
   <!-- SFO - HNL --> <line x1="293.00" y1="381.95" x2="8.62" y2="593.86" />
   <!-- MCO - MIA --> <line x1="621.53" y1="501.42" x2="629.68" y2="535.69" />
   <!-- RFD - DEN --> <line x1="559.22" y1="322.46" x2="434.62" y2="352.80" />
   <!-- ORF - IAD --> <line x1="662.39" y1="391.37" x2="652.35" y2="364.72" />
   <!-- PHL - JFK --> <line x1="670.07" y1="352.67" x2="681.77" y2="342.68" />
   <!-- RNO - PDX --> <line x1="313.86" y1="357.51" x2="291.22" y2="278.35" />
   <!-- CLE - ERI --> <line x1="617.20" y1="332.65" x2="630.59" y2="323.93" />
   <!-- ATL - GSP --> <line x1="596.58" y1="433.72" x2="614.25" y2="417.36" />
   <!-- FLL - TPA --> <line x1="630.78" y1="532.06" x2="611.73" y2="507.32" />
   <!-- IAD - ORF --> <line x1="652.35" y1="364.72" x2="662.39" y2="391.37" />
   <!-- MEM - JAN --> <line x1="552.19" y1="415.45" x2="551.39" y2="450.95" />
   <!-- IND - MDW --> <line x1="581.64" y1="354.68" x2="569.98" y2="327.78" />
   <!-- MIA - MCO --> <line x1="629.68" y1="535.69" x2="621.53" y2="501.42" />
   <!-- IAD - RIC --> <line x1="652.35" y1="364.72" x2="653.44" y2="383.43" />
   <!-- MLI - ORD --> <line x1="547.94" y1="332.17" x2="568.76" y2="325.28" />
   <!-- MIA - SFB --> <line x1="629.68" y1="535.69" x2="622.10" y2="496.89" />
   <!-- MYR - CLT --> <line x1="640.57" y1="433.16" x2="624.46" y2="413.22" />
   <!-- PDX - SEA --> <line x1="291.22" y1="278.35" x2="293.53" y2="254.16" />
   <!-- CLE - CMH --> <line x1="617.20" y1="332.65" x2="608.86" y2="351.03" />
   <!-- GPT - ATL --> <line x1="559.44" y1="475.71" x2="596.58" y2="433.72" />
   <!-- RDU - CLT --> <line x1="641.70" y1="404.59" x2="624.46" y2="413.22" />
   <!-- CLT - SAV --> <line x1="624.46" y1="413.22" x2="622.38" y2="453.34" />
   <!-- MDW - STL --> <line x1="569.98" y1="327.78" x2="549.04" y2="367.27" />
   <!-- TPA - JAX --> <line x1="611.73" y1="507.32" x2="618.50" y2="474.58" />
   <!-- RNO - SFO --> <line x1="313.86" y1="357.51" x2="293.00" y2="381.95" />
   <!-- DEN - ABQ --> <line x1="434.62" y1="352.80" x2="419.13" y2="415.48" />
   <!-- MBS - ORD --> <line x1="599.36" y1="305.07" x2="568.76" y2="325.28" />
   <!-- PHL - BWI --> <line x1="670.07" y1="352.67" x2="658.65" y2="361.72" />
   <!-- BGR - PHL --> <line x1="721.38" y1="288.50" x2="670.07" y2="352.67" />
   <!-- BNA - MEM --> <line x1="578.57" y1="401.38" x2="552.19" y2="415.45" />
   <!-- ONT - LAS --> <line x1="331.19" y1="428.27" x2="350.78" y2="401.96" />
   <!-- RST - MSP --> <line x1="532.00" y1="300.19" x2="526.23" y2="287.53" />
   <!-- ATL - HSV --> <line x1="596.58" y1="433.72" x2="577.80" y2="420.72" />
   <!-- LBB - DFW --> <line x1="457.42" y1="433.37" x2="495.70" y2="443.34" />
   <!-- BHM - ATL --> <line x1="577.97" y1="434.68" x2="596.58" y2="433.72" />
   <!-- JFK - PWM --> <line x1="681.77" y1="342.68" x2="709.53" y2="303.60" />
   <!-- BHM - MSY --> <line x1="577.97" y1="434.68" x2="549.94" y2="481.09" />
   <!-- ORD - DAY --> <line x1="568.76" y1="325.28" x2="598.24" y2="352.27" />
   <!-- JFK - PHL --> <line x1="681.77" y1="342.68" x2="670.07" y2="352.67" />
   <!-- PHL - EWR --> <line x1="670.07" y1="352.67" x2="678.65" y2="342.00" />
   <!-- CPR - SLC --> <line x1="420.29" y1="313.20" x2="376.18" y2="340.75" />
   <!-- ANC - FAI --> <line x1="72.03" y1="75.73" x2="89.15" y2="28.40" />
   <!-- BNA - BHM --> <line x1="578.57" y1="401.38" x2="577.97" y2="434.68" />
   <!-- ORD - FWA --> <line x1="568.76" y1="325.28" x2="590.44" y2="338.28" />
   <!-- PBI - TPA --> <line x1="631.24" y1="524.12" x2="611.73" y2="507.32" />
   <!-- DFW - ICT --> <line x1="495.70" y1="443.34" x2="492.54" y2="381.55" />
   <!-- ORD - IND --> <line x1="568.76" y1="325.28" x2="581.64" y2="354.68" />
   <!-- MCO - RSW --> <line x1="621.53" y1="501.42" x2="617.96" y2="526.03" />
   <!-- DEN - RFD --> <line x1="434.62" y1="352.80" x2="559.22" y2="322.46" />
   <!-- EWR - SYR --> <line x1="678.65" y1="342.00" x2="663.15" y2="310.55" />
   <!-- PHX - LAS --> <line x1="375.90" y1="436.35" x2="350.78" y2="401.96" />
   <!-- MSP - GRB --> <line x1="526.23" y1="287.53" x2="566.96" y2="292.69" />
   <!-- PIT - IAD --> <line x1="630.14" y1="344.61" x2="652.35" y2="364.72" />
   <!-- ATL - JAX --> <line x1="596.58" y1="433.72" x2="618.50" y2="474.58" />
   <!-- CLT - CHS --> <line x1="624.46" y1="413.22" x2="631.68" y2="443.32" />
   <!-- BWI - PHL --> <line x1="658.65" y1="361.72" x2="670.07" y2="352.67" />
   <!-- SAV - CLT --> <line x1="622.38" y1="453.34" x2="624.46" y2="413.22" />
   <!-- IAD - PHL --> <line x1="652.35" y1="364.72" x2="670.07" y2="352.67" />
   <!-- DAY - CLE --> <line x1="598.24" y1="352.27" x2="617.20" y2="332.65" />
   <!-- CPR - DEN --> <line x1="420.29" y1="313.20" x2="434.62" y2="352.80" />
   <!-- ORD - MKE --> <line x1="568.76" y1="325.28" x2="568.83" y2="312.69" />
   <!-- CVG - BNA --> <line x1="594.66" y1="363.37" x2="578.57" y2="401.38" />
   <!-- MSP - DLH --> <line x1="526.23" y1="287.53" x2="534.45" y2="262.05" />
   <!-- RNO - OAK --> <line x1="313.86" y1="357.51" x2="294.23" y2="380.62" />
   <!-- MDW - IND --> <line x1="569.98" y1="327.78" x2="581.64" y2="354.68" />
   <!-- CLT - GSP --> <line x1="624.46" y1="413.22" x2="614.25" y2="417.36" />
   <!-- SEA - PDX --> <line x1="293.53" y1="254.16" x2="291.22" y2="278.35" />
   <!-- GSO - CLT --> <line x1="632.50" y1="401.73" x2="624.46" y2="413.22" />
   <!-- STL - SDF --> <line x1="549.04" y1="367.27" x2="586.11" y2="374.73" />
   <!-- TUS - PHX --> <line x1="384.47" y1="453.49" x2="375.90" y2="436.35" />
   <!-- DFW - AMA --> <line x1="495.70" y1="443.34" x2="458.35" y2="413.15" />
   <!-- TUS - ABQ --> <line x1="384.47" y1="453.49" x2="419.13" y2="415.48" />
   <!-- MCI - STL --> <line x1="514.29" y1="360.13" x2="549.04" y2="367.27" />
   <!-- SJC - RNO --> <line x1="296.57" y1="385.29" x2="313.86" y2="357.51" />
   <!-- CLT - GSO --> <line x1="624.46" y1="413.22" x2="632.50" y2="401.73" />
   <!-- ATL - SRQ --> <line x1="596.58" y1="433.72" x2="611.56" y2="514.86" />
   <!-- AMA - DFW --> <line x1="458.35" y1="413.15" x2="495.70" y2="443.34" />
   <!-- IAD - PIT --> <line x1="652.35" y1="364.72" x2="630.14" y2="344.61" />
   <!-- CLE - ROC --> <line x1="617.20" y1="332.65" x2="650.62" y2="310.45" />
   <!-- DEN - AMA --> <line x1="434.62" y1="352.80" x2="458.35" y2="413.15" />
   <!-- SEA - BFI --> <line x1="293.53" y1="254.16" x2="293.58" y2="253.11" />
   <!-- GEG - SEA --> <line x1="331.73" y1="251.94" x2="293.53" y2="254.16" />
   <!-- CLT - RDU --> <line x1="624.46" y1="413.22" x2="641.70" y2="404.59" />
   <!-- LAX - SJC --> <line x1="324.74" y1="429.75" x2="296.57" y2="385.29" />
   <!-- FLL - MCO --> <line x1="630.78" y1="532.06" x2="621.53" y2="501.42" />
   <!-- HSV - ATL --> <line x1="577.80" y1="420.72" x2="596.58" y2="433.72" />
   <!-- PHL - PHF --> <line x1="670.07" y1="352.67" x2="660.06" y2="388.29" />
   <!-- DFW - LBB --> <line x1="495.70" y1="443.34" x2="457.42" y2="433.37" />
   <!-- DFW - AUS --> <line x1="495.70" y1="443.34" x2="490.64" y2="478.47" />
   <!-- GSP - ATL --> <line x1="614.25" y1="417.36" x2="596.58" y2="433.72" />
   <!-- CMH - CLE --> <line x1="608.86" y1="351.03" x2="617.20" y2="332.65" />
   <!-- IAH - CRP --> <line x1="509.27" y1="481.20" x2="491.99" y2="509.98" />
   <!-- ERI - CLE --> <line x1="630.59" y1="323.93" x2="617.20" y2="332.65" />
   <!-- LAX - LAS --> <line x1="324.74" y1="429.75" x2="350.78" y2="401.96" />
   <!-- JAN - MEM --> <line x1="551.39" y1="450.95" x2="552.19" y2="415.45" />
   <!-- PDX - RNO --> <line x1="291.22" y1="278.35" x2="313.86" y2="357.51" />
   <!-- DSM - MSP --> <line x1="522.70" y1="331.06" x2="526.23" y2="287.53" />
   <!-- OAK - RNO --> <line x1="294.23" y1="380.62" x2="313.86" y2="357.51" />
   <!-- TPA - FLL --> <line x1="611.73" y1="507.32" x2="630.78" y2="532.06" />
   <!-- SJC - LAX --> <line x1="296.57" y1="385.29" x2="324.74" y2="429.75" />
   <!-- STL - MCI --> <line x1="549.04" y1="367.27" x2="514.29" y2="360.13" />
   <!-- ANC - SEA --> <line x1="72.03" y1="75.73" x2="293.53" y2="254.16" />
   <!-- CLT - MYR --> <line x1="624.46" y1="413.22" x2="640.57" y2="433.16" />
   <!-- BNA - CVG --> <line x1="578.57" y1="401.38" x2="594.66" y2="363.37" />
   <!-- MSY - BHM --> <line x1="549.94" y1="481.09" x2="577.97" y2="434.68" />
   <!-- BDL - JFK --> <line x1="690.53" y1="325.79" x2="681.77" y2="342.68" />
   <!-- RIC - IAD --> <line x1="653.44" y1="383.43" x2="652.35" y2="364.72" />
   <!-- MEM - BNA --> <line x1="552.19" y1="415.45" x2="578.57" y2="401.38" />
   <!-- ORD - MBS --> <line x1="568.76" y1="325.28" x2="599.36" y2="305.07" />
   <!-- HNL - SFO --> <line x1="8.62" y1="593.86" x2="293.00" y2="381.95" />
   <!-- RDU - IAD --> <line x1="641.70" y1="404.59" x2="652.35" y2="364.72" />
   <!-- SRQ - ATL --> <line x1="611.56" y1="514.86" x2="596.58" y2="433.72" />
</g>
<g font-size="7" font-family="Verdana">
   <text x="419.13" y="415.48">ABQ</text>
   <text x="458.35" y="413.15">AMA</text>
   <text x="72.03" y="75.73">ANC</text>
   <text x="596.58" y="433.72">ATL</text>
   <text x="490.64" y="478.47">AUS</text>
   <text x="690.53" y="325.79">BDL</text>
   <text x="293.58" y="253.11">BFI</text>
   <text x="721.38" y="288.50">BGR</text>
   <text x="577.97" y="434.68">BHM</text>
   <text x="403.66" y="275.50">BIL</text>
   <text x="578.57" y="401.38">BNA</text>
   <text x="703.96" y="320.26">BOS</text>
   <text x="642.14" y="312.77">BUF</text>
   <text x="658.65" y="361.72">BWI</text>
   <text x="631.68" y="443.32">CHS</text>
   <text x="617.20" y="332.65">CLE</text>
   <text x="624.46" y="413.22">CLT</text>
   <text x="608.86" y="351.03">CMH</text>
   <text x="420.29" y="313.20">CPR</text>
   <text x="491.99" y="509.98">CRP</text>
   <text x="594.66" y="363.37">CVG</text>
   <text x="598.24" y="352.27">DAY</text>
   <text x="434.62" y="352.80">DEN</text>
   <text x="495.70" y="443.34">DFW</text>
   <text x="534.45" y="262.05">DLH</text>
   <text x="522.70" y="331.06">DSM</text>
   <text x="630.59" y="323.93">ERI</text>
   <text x="678.65" y="342.00">EWR</text>
   <text x="89.15" y="28.40">FAI</text>
   <text x="630.78" y="532.06">FLL</text>
   <text x="590.44" y="338.28">FWA</text>
   <text x="331.73" y="251.94">GEG</text>
   <text x="559.44" y="475.71">GPT</text>
   <text x="566.96" y="292.69">GRB</text>
   <text x="632.50" y="401.73">GSO</text>
   <text x="614.25" y="417.36">GSP</text>
   <text x="8.62" y="593.86">HNL</text>
   <text x="577.80" y="420.72">HSV</text>
   <text x="652.35" y="364.72">IAD</text>
   <text x="509.27" y="481.20">IAH</text>
   <text x="492.54" y="381.55">ICT</text>
   <text x="581.64" y="354.68">IND</text>
   <text x="551.39" y="450.95">JAN</text>
   <text x="618.50" y="474.58">JAX</text>
   <text x="681.77" y="342.68">JFK</text>
   <text x="350.78" y="401.96">LAS</text>
   <text x="324.74" y="429.75">LAX</text>
   <text x="457.42" y="433.37">LBB</text>
   <text x="599.36" y="305.07">MBS</text>
   <text x="514.29" y="360.13">MCI</text>
   <text x="621.53" y="501.42">MCO</text>
   <text x="569.98" y="327.78">MDW</text>
   <text x="552.19" y="415.45">MEM</text>
   <text x="629.68" y="535.69">MIA</text>
   <text x="568.83" y="312.69">MKE</text>
   <text x="547.94" y="332.17">MLI</text>
   <text x="526.23" y="287.53">MSP</text>
   <text x="549.94" y="481.09">MSY</text>
   <text x="640.57" y="433.16">MYR</text>
   <text x="294.23" y="380.62">OAK</text>
   <text x="331.19" y="428.27">ONT</text>
   <text x="568.76" y="325.28">ORD</text>
   <text x="662.39" y="391.37">ORF</text>
   <text x="631.24" y="524.12">PBI</text>
   <text x="291.22" y="278.35">PDX</text>
   <text x="660.06" y="388.29">PHF</text>
   <text x="670.07" y="352.67">PHL</text>
   <text x="375.90" y="436.35">PHX</text>
   <text x="630.14" y="344.61">PIT</text>
   <text x="709.53" y="303.60">PWM</text>
   <text x="641.70" y="404.59">RDU</text>
   <text x="559.22" y="322.46">RFD</text>
   <text x="653.44" y="383.43">RIC</text>
   <text x="313.86" y="357.51">RNO</text>
   <text x="650.62" y="310.45">ROC</text>
   <text x="532.00" y="300.19">RST</text>
   <text x="617.96" y="526.03">RSW</text>
   <text x="334.48" y="445.46">SAN</text>
   <text x="484.24" y="487.06">SAT</text>
   <text x="622.38" y="453.34">SAV</text>
   <text x="586.11" y="374.73">SDF</text>
   <text x="293.53" y="254.16">SEA</text>
   <text x="622.10" y="496.89">SFB</text>
   <text x="293.00" y="381.95">SFO</text>
   <text x="296.57" y="385.29">SJC</text>
   <text x="376.18" y="340.75">SLC</text>
   <text x="299.27" y="367.96">SMF</text>
   <text x="611.56" y="514.86">SRQ</text>
   <text x="549.04" y="367.27">STL</text>
   <text x="663.15" y="310.55">SYR</text>
   <text x="611.73" y="507.32">TPA</text>
   <text x="504.90" y="400.42">TUL</text>
   <text x="384.47" y="453.49">TUS</text>
</g>

</svg>

